<svg width="117" height="55" viewBox="0 0 117 55" fill="none" xmlns="http://www.w3.org/2000/svg">
<path d="M15.15 54.26C12.21 54.26 9.62 53.7467 7.38 52.72C5.14 51.6933 3.41333 50.27 2.2 48.45C0.986667 46.5833 0.38 44.4367 0.38 42.01C0.38 39.9567 0.8 38.09 1.64 36.41C2.52667 34.73 3.69333 33.4 5.14 32.42C6.63333 31.44 8.26667 30.95 10.04 30.95C11.6733 30.95 13.05 31.37 14.17 32.21C15.29 33.0033 15.99 34.1233 16.27 35.57C13.8433 35.57 11.9067 36.2233 10.46 37.53C9.01333 38.79 8.29 40.5167 8.29 42.71C8.29 44.7167 8.89667 46.3267 10.11 47.54C11.3233 48.7533 12.9333 49.36 14.94 49.36C17.4133 49.36 19.4433 48.5433 21.03 46.91C22.6633 45.23 23.48 43.13 23.48 40.61C23.48 38.4167 22.8733 36.34 21.66 34.38C20.4467 32.42 18.6267 30.04 16.2 27.24C13.68 24.3467 11.7667 21.8733 10.46 19.82C9.2 17.72 8.57 15.4333 8.57 12.96C8.57 10.5333 9.24667 8.36333 10.6 6.45C11.9533 4.49 13.82 2.95 16.2 1.83C18.58 0.709997 21.2633 0.149996 24.25 0.149996C28.03 0.149996 31.04 1.03666 33.28 2.81C35.5667 4.58333 36.71 6.96333 36.71 9.95C36.71 11.91 36.22 13.4967 35.24 14.71C34.26 15.9233 32.9767 16.53 31.39 16.53C29.6167 16.53 28.1933 15.8067 27.12 14.36C28.0067 13.7067 28.7067 12.8433 29.22 11.77C29.7333 10.6967 29.99 9.57666 29.99 8.41C29.99 6.91666 29.5467 5.72666 28.66 4.84C27.7733 3.95333 26.56 3.51 25.02 3.51C23.1533 3.51 21.6133 4.18667 20.4 5.54C19.2333 6.84666 18.65 8.52666 18.65 10.58C18.65 12.4467 19.1867 14.1967 20.26 15.83C21.3333 17.4167 23.0133 19.47 25.3 21.99C27.1667 23.9967 28.66 25.7233 29.78 27.17C30.9467 28.6167 31.9267 30.2967 32.72 32.21C33.56 34.0767 33.98 36.1067 33.98 38.3C33.98 41.2867 33.14 43.9933 31.46 46.42C29.8267 48.8467 27.5633 50.76 24.67 52.16C21.8233 53.56 18.65 54.26 15.15 54.26ZM82.0705 53.91C79.2705 53.91 76.4239 52.6733 73.5305 50.2L72.9705 53H62.8905L72.4105 8.48L82.7705 7.08L74.3705 46.35C75.6772 47.2833 77.0072 47.75 78.3605 47.75C81.0205 47.75 83.3539 46.21 85.3605 43.13C87.4139 40.05 89.0005 36.13 90.1205 31.37C91.2405 26.61 91.8005 21.8033 91.8005 16.95C91.8005 12.3767 90.8905 9.04 89.0705 6.94C87.2972 4.79333 84.8005 3.72 81.5805 3.72C78.0805 3.72 74.9305 4.42 72.1305 5.82C69.3772 7.17333 67.2072 9.13333 65.6205 11.7C64.0339 14.2667 63.2405 17.2767 63.2405 20.73C63.2405 22.4567 63.4039 23.67 63.7305 24.37C64.0572 25.0233 64.2205 25.3967 64.2205 25.49C61.7939 25.49 59.9272 24.9767 58.6205 23.95C57.3605 22.9233 56.7305 21.2667 56.7305 18.98C56.7305 15.8067 57.9205 12.7967 60.3005 9.95C62.6805 7.10333 65.8539 4.81666 69.8205 3.09C73.8339 1.36333 78.1505 0.499996 82.7705 0.499996C89.1639 0.499996 93.8772 2.39 96.9105 6.17C99.9439 9.95 101.461 14.78 101.461 20.66C101.461 25.98 100.551 31.23 98.7305 36.41C96.9572 41.5433 94.5772 45.7433 91.5905 49.01C88.6039 52.2767 85.4305 53.91 82.0705 53.91Z" fill="white"/>
<path d="M45.6219 53.28C44.0819 53.28 42.7752 52.7433 41.7019 51.67C40.6285 50.5967 40.0919 49.29 40.0919 47.75C40.0919 46.21 40.6285 44.9033 41.7019 43.83C42.7752 42.71 44.0819 42.15 45.6219 42.15C47.1619 42.15 48.4685 42.71 49.5419 43.83C50.6619 44.9033 51.2219 46.21 51.2219 47.75C51.2219 49.29 50.6619 50.5967 49.5419 51.67C48.4685 52.7433 47.1619 53.28 45.6219 53.28Z" fill="#066AFF"/>
<path d="M110.427 53.28C108.887 53.28 107.58 52.7433 106.507 51.67C105.433 50.5967 104.897 49.29 104.897 47.75C104.897 46.21 105.433 44.9033 106.507 43.83C107.58 42.71 108.887 42.15 110.427 42.15C111.967 42.15 113.273 42.71 114.347 43.83C115.467 44.9033 116.027 46.21 116.027 47.75C116.027 49.29 115.467 50.5967 114.347 51.67C113.273 52.7433 111.967 53.28 110.427 53.28Z" fill="#FB2576"/>
</svg>
